# xmcd
#
# Track frame offsets:
#	150
#	11528
#	28178
#	48764
#	64061
#	78530
#	91914
#	113238
#	130410
#	147128
#	160674
#	179137
#	188184
#	209572
#	224539
#	236607
#	249450
#	272031
#	287849
#
# Disc length: 3985 seconds
#
# Revision: 0
# Processed by: cddbd v1.5.2PL0 Copyright (c) Steve Scherf et al.
# Submitted via: EZCDAudioConverter 7.0.5.1
#
DISCID=1d0f8f13
DTITLE=Nu Urban Traxx Volume 242 US
DYEAR=1900
DGENRE=blues
TTITLE0=Yo Gotti - Juice
TTITLE1=Lil Uzi Vert and Meek Mill - The Way Life Goes
TTITLE2=SZA - The Weekend
TTITLE3=Fetty Wap - There She Go
TTITLE4=Post Malone ft. 21 Savage - Rockstar
TTITLE5=Lougotcash - Make 10
TTITLE6=Meek Mill - 1942 Flows
TTITLE7=Busta Rhymes ft. Vybz Kartel and Tory Lanez - Girlfriend
TTITLE8=The Weeknd - Die For You
TTITLE9=Creek Boyz - With My Team
TTITLE10=Nexxthursday ft. Quavo and Lil Yachty - Sway
TTITLE11=XXXTENTACION - Jocelyn Flores
TTITLE12=NAV and Metro Boomin ft. Offset and Playboi Carti - Minute
TTITLE13=Don Zio P - Dunk On Yo B-tch
TTITLE14=YoungBoy Never Broke Again - No Smoke
TTITLE15=SOB x RBE - Anti
TTITLE16=Tamar Braxton - Blind
TTITLE17=Melanie Fiona - Remember U
TTITLE18=Snap Dogg - WYA
EXTD=
EXTT0=
EXTT1=
EXTT2=
EXTT3=
EXTT4=
EXTT5=
EXTT6=
EXTT7=
EXTT8=
EXTT9=
EXTT10=
EXTT11=
EXTT12=
EXTT13=
EXTT14=
EXTT15=
EXTT16=
EXTT17=
EXTT18=
PLAYORDER=
